<mxfile host="app.diagrams.net" agent="Mozilla/5.0 (Windows NT 10.0; Win64; x64; rv:140.0) Gecko/20100101 Firefox/140.0" version="28.0.6">
  <diagram name="Page-1" id="QAIHcYfxXkj9VGwBQZ36">
    <mxGraphModel dx="3416" dy="2177" grid="1" gridSize="10" guides="1" tooltips="1" connect="1" arrows="1" fold="1" page="1" pageScale="1" pageWidth="1100" pageHeight="850" math="0" shadow="0">
      <root>
        <mxCell id="0" />
        <mxCell id="1" parent="0" />
        <mxCell id="_pCWuQ_MNoQDp3mQOAM--2" value="VPC" style="sketch=0;outlineConnect=0;gradientColor=none;html=1;whiteSpace=wrap;fontSize=12;fontStyle=0;shape=mxgraph.aws4.group;grIcon=mxgraph.aws4.group_vpc;strokeColor=#879196;fillColor=none;verticalAlign=top;align=left;spacingLeft=30;fontColor=#879196;" vertex="1" parent="1">
          <mxGeometry x="150" y="70" width="800" height="501" as="geometry" />
        </mxCell>
        <mxCell id="_pCWuQ_MNoQDp3mQOAM--3" value="Availability zone" style="sketch=0;outlineConnect=0;gradientColor=none;html=1;whiteSpace=wrap;fontSize=12;fontStyle=0;shape=mxgraph.aws4.group;grIcon=mxgraph.aws4.group_availability_zone;strokeColor=#545B64;fillColor=none;verticalAlign=top;align=left;spacingLeft=30;fontColor=#545B64;dashed=1;" vertex="1" parent="1">
          <mxGeometry x="180" y="180" width="220" height="370" as="geometry" />
        </mxCell>
        <mxCell id="_pCWuQ_MNoQDp3mQOAM--5" value="" style="sketch=0;outlineConnect=0;fontColor=#232F3E;gradientColor=none;fillColor=#8C4FFF;strokeColor=none;dashed=0;verticalLabelPosition=bottom;verticalAlign=top;align=center;html=1;fontSize=12;fontStyle=0;aspect=fixed;pointerEvents=1;shape=mxgraph.aws4.internet_gateway;" vertex="1" parent="1">
          <mxGeometry x="526" y="44" width="48" height="48" as="geometry" />
        </mxCell>
        <mxCell id="_pCWuQ_MNoQDp3mQOAM--9" value="Private subnet" style="points=[[0,0],[0.25,0],[0.5,0],[0.75,0],[1,0],[1,0.25],[1,0.5],[1,0.75],[1,1],[0.75,1],[0.5,1],[0.25,1],[0,1],[0,0.75],[0,0.5],[0,0.25]];outlineConnect=0;gradientColor=none;html=1;whiteSpace=wrap;fontSize=12;fontStyle=0;container=1;pointerEvents=0;collapsible=0;recursiveResize=0;shape=mxgraph.aws4.group;grIcon=mxgraph.aws4.group_security_group;grStroke=0;strokeColor=#00A4A6;fillColor=#E6F6F7;verticalAlign=top;align=left;spacingLeft=30;fontColor=#147EBA;dashed=0;" vertex="1" parent="1">
          <mxGeometry x="210" y="390" width="165" height="130" as="geometry" />
        </mxCell>
        <mxCell id="_pCWuQ_MNoQDp3mQOAM--10" value="Public subnet" style="points=[[0,0],[0.25,0],[0.5,0],[0.75,0],[1,0],[1,0.25],[1,0.5],[1,0.75],[1,1],[0.75,1],[0.5,1],[0.25,1],[0,1],[0,0.75],[0,0.5],[0,0.25]];outlineConnect=0;gradientColor=none;html=1;whiteSpace=wrap;fontSize=12;fontStyle=0;container=1;pointerEvents=0;collapsible=0;recursiveResize=0;shape=mxgraph.aws4.group;grIcon=mxgraph.aws4.group_security_group;grStroke=0;strokeColor=#7AA116;fillColor=#F2F6E8;verticalAlign=top;align=left;spacingLeft=30;fontColor=#248814;dashed=0;" vertex="1" parent="1">
          <mxGeometry x="210" y="210" width="165" height="130" as="geometry" />
        </mxCell>
        <mxCell id="_pCWuQ_MNoQDp3mQOAM--12" value="" style="sketch=0;points=[[0,0,0],[0.25,0,0],[0.5,0,0],[0.75,0,0],[1,0,0],[0,1,0],[0.25,1,0],[0.5,1,0],[0.75,1,0],[1,1,0],[0,0.25,0],[0,0.5,0],[0,0.75,0],[1,0.25,0],[1,0.5,0],[1,0.75,0]];outlineConnect=0;fontColor=#232F3E;fillColor=#ED7100;strokeColor=#ffffff;dashed=0;verticalLabelPosition=bottom;verticalAlign=top;align=center;html=1;fontSize=12;fontStyle=0;aspect=fixed;shape=mxgraph.aws4.resourceIcon;resIcon=mxgraph.aws4.ec2;" vertex="1" parent="_pCWuQ_MNoQDp3mQOAM--10">
          <mxGeometry x="84" y="85" width="40" height="40" as="geometry" />
        </mxCell>
        <mxCell id="_pCWuQ_MNoQDp3mQOAM--19" value="" style="shape=ext;double=1;rounded=0;whiteSpace=wrap;html=1;" vertex="1" parent="_pCWuQ_MNoQDp3mQOAM--10">
          <mxGeometry x="10" y="90" width="60" height="30" as="geometry" />
        </mxCell>
        <mxCell id="_pCWuQ_MNoQDp3mQOAM--20" value="" style="html=1;shadow=0;dashed=0;align=center;verticalAlign=middle;shape=mxgraph.arrows2.twoWayArrow;dy=0.65;dx=22;" vertex="1" parent="_pCWuQ_MNoQDp3mQOAM--10">
          <mxGeometry x="15" y="100" width="50" height="15" as="geometry" />
        </mxCell>
        <mxCell id="_pCWuQ_MNoQDp3mQOAM--24" value="" style="pointerEvents=1;shadow=0;dashed=0;html=1;strokeColor=none;fillColor=#4495D1;labelPosition=center;verticalLabelPosition=bottom;verticalAlign=top;align=center;outlineConnect=0;shape=mxgraph.veeam.cpu_socket;" vertex="1" parent="_pCWuQ_MNoQDp3mQOAM--10">
          <mxGeometry x="34" y="30" width="44.8" height="44.8" as="geometry" />
        </mxCell>
        <mxCell id="_pCWuQ_MNoQDp3mQOAM--26" value="" style="endArrow=classic;startArrow=classic;html=1;rounded=0;exitX=0;exitY=0;exitDx=0;exitDy=0;" edge="1" parent="_pCWuQ_MNoQDp3mQOAM--10" source="_pCWuQ_MNoQDp3mQOAM--19">
          <mxGeometry width="50" height="50" relative="1" as="geometry">
            <mxPoint x="-16" y="100" as="sourcePoint" />
            <mxPoint x="34" y="50" as="targetPoint" />
            <Array as="points">
              <mxPoint x="10" y="50" />
            </Array>
          </mxGeometry>
        </mxCell>
        <mxCell id="_pCWuQ_MNoQDp3mQOAM--28" value="" style="endArrow=classic;startArrow=classic;html=1;rounded=0;" edge="1" parent="_pCWuQ_MNoQDp3mQOAM--10" target="_pCWuQ_MNoQDp3mQOAM--24">
          <mxGeometry width="50" height="50" relative="1" as="geometry">
            <mxPoint x="110" y="85" as="sourcePoint" />
            <mxPoint x="34" y="60" as="targetPoint" />
            <Array as="points">
              <mxPoint x="110" y="52" />
            </Array>
          </mxGeometry>
        </mxCell>
        <mxCell id="_pCWuQ_MNoQDp3mQOAM--14" value="" style="outlineConnect=0;dashed=0;verticalLabelPosition=bottom;verticalAlign=top;align=center;html=1;shape=mxgraph.aws3.vpc_nat_gateway;fillColor=#F58536;gradientColor=none;" vertex="1" parent="1">
          <mxGeometry x="359" y="260" width="41" height="40" as="geometry" />
        </mxCell>
        <mxCell id="_pCWuQ_MNoQDp3mQOAM--18" value="" style="points=[];aspect=fixed;html=1;align=center;shadow=0;dashed=0;fillColor=#FF6A00;strokeColor=none;shape=mxgraph.alibaba_cloud.redis_kvstore;" vertex="1" parent="1">
          <mxGeometry x="243.75" y="425" width="52.5" height="41.4" as="geometry" />
        </mxCell>
        <mxCell id="_pCWuQ_MNoQDp3mQOAM--29" value="" style="sketch=0;outlineConnect=0;fontColor=#232F3E;gradientColor=none;fillColor=#8C4FFF;strokeColor=none;dashed=0;verticalLabelPosition=bottom;verticalAlign=top;align=center;html=1;fontSize=12;fontStyle=0;aspect=fixed;pointerEvents=1;shape=mxgraph.aws4.route_table;" vertex="1" parent="1">
          <mxGeometry x="265.37" y="100" width="49.26" height="48" as="geometry" />
        </mxCell>
        <mxCell id="_pCWuQ_MNoQDp3mQOAM--30" value="" style="outlineConnect=0;dashed=0;verticalLabelPosition=bottom;verticalAlign=top;align=center;html=1;shape=mxgraph.aws3.route_table;fillColor=#F58536;gradientColor=none;" vertex="1" parent="1">
          <mxGeometry x="465" y="425" width="50" height="30" as="geometry" />
        </mxCell>
        <mxCell id="_pCWuQ_MNoQDp3mQOAM--31" value="" style="endArrow=classic;html=1;rounded=0;edgeStyle=elbowEdgeStyle;" edge="1" parent="1">
          <mxGeometry width="50" height="50" relative="1" as="geometry">
            <mxPoint x="380" y="439.5" as="sourcePoint" />
            <mxPoint x="470" y="440" as="targetPoint" />
            <Array as="points">
              <mxPoint x="400" y="439.5" />
            </Array>
          </mxGeometry>
        </mxCell>
        <mxCell id="_pCWuQ_MNoQDp3mQOAM--32" value="" style="endArrow=classic;html=1;rounded=0;" edge="1" parent="1" source="_pCWuQ_MNoQDp3mQOAM--30" target="_pCWuQ_MNoQDp3mQOAM--14">
          <mxGeometry width="50" height="50" relative="1" as="geometry">
            <mxPoint x="440" y="330" as="sourcePoint" />
            <mxPoint x="490" y="280" as="targetPoint" />
            <Array as="points">
              <mxPoint x="490" y="280" />
              <mxPoint x="430" y="280" />
            </Array>
          </mxGeometry>
        </mxCell>
        <mxCell id="_pCWuQ_MNoQDp3mQOAM--33" value="Availability zone" style="sketch=0;outlineConnect=0;gradientColor=none;html=1;whiteSpace=wrap;fontSize=12;fontStyle=0;shape=mxgraph.aws4.group;grIcon=mxgraph.aws4.group_availability_zone;strokeColor=#545B64;fillColor=none;verticalAlign=top;align=left;spacingLeft=30;fontColor=#545B64;dashed=1;" vertex="1" parent="1">
          <mxGeometry x="680" y="158" width="220" height="400" as="geometry" />
        </mxCell>
        <mxCell id="_pCWuQ_MNoQDp3mQOAM--34" value="" style="sketch=0;outlineConnect=0;fontColor=#232F3E;gradientColor=none;fillColor=#8C4FFF;strokeColor=none;dashed=0;verticalLabelPosition=bottom;verticalAlign=top;align=center;html=1;fontSize=12;fontStyle=0;aspect=fixed;pointerEvents=1;shape=mxgraph.aws4.route_table;" vertex="1" parent="1">
          <mxGeometry x="740" y="92" width="49.26" height="48" as="geometry" />
        </mxCell>
        <mxCell id="_pCWuQ_MNoQDp3mQOAM--35" value="" style="outlineConnect=0;dashed=0;verticalLabelPosition=bottom;verticalAlign=top;align=center;html=1;shape=mxgraph.aws3.route_table;fillColor=#F58536;gradientColor=none;" vertex="1" parent="1">
          <mxGeometry x="570" y="425" width="50" height="30" as="geometry" />
        </mxCell>
        <mxCell id="_pCWuQ_MNoQDp3mQOAM--37" value="Private subnet" style="points=[[0,0],[0.25,0],[0.5,0],[0.75,0],[1,0],[1,0.25],[1,0.5],[1,0.75],[1,1],[0.75,1],[0.5,1],[0.25,1],[0,1],[0,0.75],[0,0.5],[0,0.25]];outlineConnect=0;gradientColor=none;html=1;whiteSpace=wrap;fontSize=12;fontStyle=0;container=1;pointerEvents=0;collapsible=0;recursiveResize=0;shape=mxgraph.aws4.group;grIcon=mxgraph.aws4.group_security_group;grStroke=0;strokeColor=#00A4A6;fillColor=#E6F6F7;verticalAlign=top;align=left;spacingLeft=30;fontColor=#147EBA;dashed=0;" vertex="1" parent="1">
          <mxGeometry x="707.5" y="400" width="165" height="130" as="geometry" />
        </mxCell>
        <mxCell id="_pCWuQ_MNoQDp3mQOAM--48" value="Public subnet" style="points=[[0,0],[0.25,0],[0.5,0],[0.75,0],[1,0],[1,0.25],[1,0.5],[1,0.75],[1,1],[0.75,1],[0.5,1],[0.25,1],[0,1],[0,0.75],[0,0.5],[0,0.25]];outlineConnect=0;gradientColor=none;html=1;whiteSpace=wrap;fontSize=12;fontStyle=0;container=1;pointerEvents=0;collapsible=0;recursiveResize=0;shape=mxgraph.aws4.group;grIcon=mxgraph.aws4.group_security_group;grStroke=0;strokeColor=#7AA116;fillColor=#F2F6E8;verticalAlign=top;align=left;spacingLeft=30;fontColor=#248814;dashed=0;" vertex="1" parent="1">
          <mxGeometry x="717.5" y="210" width="155" height="160" as="geometry" />
        </mxCell>
        <mxCell id="_pCWuQ_MNoQDp3mQOAM--49" value="" style="sketch=0;points=[[0,0,0],[0.25,0,0],[0.5,0,0],[0.75,0,0],[1,0,0],[0,1,0],[0.25,1,0],[0.5,1,0],[0.75,1,0],[1,1,0],[0,0.25,0],[0,0.5,0],[0,0.75,0],[1,0.25,0],[1,0.5,0],[1,0.75,0]];outlineConnect=0;fontColor=#232F3E;fillColor=#ED7100;strokeColor=#ffffff;dashed=0;verticalLabelPosition=bottom;verticalAlign=top;align=center;html=1;fontSize=12;fontStyle=0;aspect=fixed;shape=mxgraph.aws4.resourceIcon;resIcon=mxgraph.aws4.ec2;" vertex="1" parent="_pCWuQ_MNoQDp3mQOAM--48">
          <mxGeometry x="84" y="85" width="40" height="40" as="geometry" />
        </mxCell>
        <mxCell id="_pCWuQ_MNoQDp3mQOAM--50" value="" style="shape=ext;double=1;rounded=0;whiteSpace=wrap;html=1;" vertex="1" parent="_pCWuQ_MNoQDp3mQOAM--48">
          <mxGeometry x="10" y="90" width="60" height="30" as="geometry" />
        </mxCell>
        <mxCell id="_pCWuQ_MNoQDp3mQOAM--51" value="" style="html=1;shadow=0;dashed=0;align=center;verticalAlign=middle;shape=mxgraph.arrows2.twoWayArrow;dy=0.65;dx=22;" vertex="1" parent="_pCWuQ_MNoQDp3mQOAM--48">
          <mxGeometry x="15" y="100" width="50" height="15" as="geometry" />
        </mxCell>
        <mxCell id="_pCWuQ_MNoQDp3mQOAM--52" value="" style="pointerEvents=1;shadow=0;dashed=0;html=1;strokeColor=none;fillColor=#4495D1;labelPosition=center;verticalLabelPosition=bottom;verticalAlign=top;align=center;outlineConnect=0;shape=mxgraph.veeam.cpu_socket;" vertex="1" parent="_pCWuQ_MNoQDp3mQOAM--48">
          <mxGeometry x="34" y="30" width="44.8" height="44.8" as="geometry" />
        </mxCell>
        <mxCell id="_pCWuQ_MNoQDp3mQOAM--53" value="" style="endArrow=classic;startArrow=classic;html=1;rounded=0;exitX=0;exitY=0;exitDx=0;exitDy=0;" edge="1" parent="_pCWuQ_MNoQDp3mQOAM--48" source="_pCWuQ_MNoQDp3mQOAM--50">
          <mxGeometry width="50" height="50" relative="1" as="geometry">
            <mxPoint x="-16" y="100" as="sourcePoint" />
            <mxPoint x="34" y="50" as="targetPoint" />
            <Array as="points">
              <mxPoint x="10" y="50" />
            </Array>
          </mxGeometry>
        </mxCell>
        <mxCell id="_pCWuQ_MNoQDp3mQOAM--54" value="" style="endArrow=classic;startArrow=classic;html=1;rounded=0;" edge="1" parent="_pCWuQ_MNoQDp3mQOAM--48" target="_pCWuQ_MNoQDp3mQOAM--52">
          <mxGeometry width="50" height="50" relative="1" as="geometry">
            <mxPoint x="110" y="85" as="sourcePoint" />
            <mxPoint x="34" y="60" as="targetPoint" />
            <Array as="points">
              <mxPoint x="110" y="52" />
            </Array>
          </mxGeometry>
        </mxCell>
        <mxCell id="_pCWuQ_MNoQDp3mQOAM--55" value="" style="sketch=0;outlineConnect=0;fontColor=#232F3E;gradientColor=none;fillColor=#C925D1;strokeColor=none;dashed=0;verticalLabelPosition=bottom;verticalAlign=top;align=center;html=1;fontSize=12;fontStyle=0;aspect=fixed;pointerEvents=1;shape=mxgraph.aws4.rds_instance;" vertex="1" parent="1">
          <mxGeometry x="750" y="430" width="78" height="78" as="geometry" />
        </mxCell>
        <mxCell id="_pCWuQ_MNoQDp3mQOAM--56" value="" style="outlineConnect=0;dashed=0;verticalLabelPosition=bottom;verticalAlign=top;align=center;html=1;shape=mxgraph.aws3.vpc_nat_gateway;fillColor=#F58536;gradientColor=none;rotation=-180;" vertex="1" parent="1">
          <mxGeometry x="678.5" y="280" width="39" height="42" as="geometry" />
        </mxCell>
        <mxCell id="_pCWuQ_MNoQDp3mQOAM--60" value="" style="endArrow=classic;html=1;rounded=0;entryX=1;entryY=0.5;entryDx=0;entryDy=0;entryPerimeter=0;" edge="1" parent="1" target="_pCWuQ_MNoQDp3mQOAM--35">
          <mxGeometry width="50" height="50" relative="1" as="geometry">
            <mxPoint x="680" y="438.25641025641016" as="sourcePoint" />
            <mxPoint x="620" y="463.48717948717945" as="targetPoint" />
          </mxGeometry>
        </mxCell>
        <mxCell id="_pCWuQ_MNoQDp3mQOAM--61" value="" style="endArrow=classic;html=1;rounded=0;" edge="1" parent="1" source="_pCWuQ_MNoQDp3mQOAM--35" target="_pCWuQ_MNoQDp3mQOAM--56">
          <mxGeometry width="50" height="50" relative="1" as="geometry">
            <mxPoint x="480" y="330" as="sourcePoint" />
            <mxPoint x="530" y="280" as="targetPoint" />
            <Array as="points">
              <mxPoint x="600" y="300" />
            </Array>
          </mxGeometry>
        </mxCell>
        <mxCell id="_pCWuQ_MNoQDp3mQOAM--68" value="" style="endArrow=classic;html=1;rounded=0;" edge="1" parent="1" source="_pCWuQ_MNoQDp3mQOAM--10" target="_pCWuQ_MNoQDp3mQOAM--29">
          <mxGeometry width="50" height="50" relative="1" as="geometry">
            <mxPoint x="267.0740506329114" y="195" as="sourcePoint" />
            <mxPoint x="263.60417721519" y="167.0000000000001" as="targetPoint" />
          </mxGeometry>
        </mxCell>
        <mxCell id="_pCWuQ_MNoQDp3mQOAM--69" value="" style="endArrow=classic;html=1;rounded=0;" edge="1" parent="1">
          <mxGeometry width="50" height="50" relative="1" as="geometry">
            <mxPoint x="770" y="199" as="sourcePoint" />
            <mxPoint x="769" y="137" as="targetPoint" />
          </mxGeometry>
        </mxCell>
        <mxCell id="_pCWuQ_MNoQDp3mQOAM--70" value="" style="endArrow=classic;startArrow=classic;html=1;rounded=0;" edge="1" parent="1" target="_pCWuQ_MNoQDp3mQOAM--34">
          <mxGeometry width="50" height="50" relative="1" as="geometry">
            <mxPoint x="320" y="120" as="sourcePoint" />
            <mxPoint x="460" y="300" as="targetPoint" />
          </mxGeometry>
        </mxCell>
        <mxCell id="_pCWuQ_MNoQDp3mQOAM--72" value="" style="endArrow=classic;html=1;rounded=0;" edge="1" parent="1" target="_pCWuQ_MNoQDp3mQOAM--5">
          <mxGeometry width="50" height="50" relative="1" as="geometry">
            <mxPoint x="550" y="120" as="sourcePoint" />
            <mxPoint x="460" y="300" as="targetPoint" />
          </mxGeometry>
        </mxCell>
        <mxCell id="_pCWuQ_MNoQDp3mQOAM--109" value="" style="group" vertex="1" connectable="0" parent="1">
          <mxGeometry x="1151" y="70" width="800" height="527" as="geometry" />
        </mxCell>
        <mxCell id="_pCWuQ_MNoQDp3mQOAM--73" value="VPC" style="sketch=0;outlineConnect=0;gradientColor=none;html=1;whiteSpace=wrap;fontSize=12;fontStyle=0;shape=mxgraph.aws4.group;grIcon=mxgraph.aws4.group_vpc;strokeColor=#879196;fillColor=none;verticalAlign=top;align=left;spacingLeft=30;fontColor=#879196;dashed=0;" vertex="1" parent="_pCWuQ_MNoQDp3mQOAM--109">
          <mxGeometry y="26" width="800" height="501" as="geometry" />
        </mxCell>
        <mxCell id="_pCWuQ_MNoQDp3mQOAM--74" value="Availability zone" style="sketch=0;outlineConnect=0;gradientColor=none;html=1;whiteSpace=wrap;fontSize=12;fontStyle=0;shape=mxgraph.aws4.group;grIcon=mxgraph.aws4.group_availability_zone;strokeColor=#545B64;fillColor=none;verticalAlign=top;align=left;spacingLeft=30;fontColor=#545B64;dashed=1;" vertex="1" parent="_pCWuQ_MNoQDp3mQOAM--109">
          <mxGeometry x="30" y="136" width="220" height="370" as="geometry" />
        </mxCell>
        <mxCell id="_pCWuQ_MNoQDp3mQOAM--75" value="" style="sketch=0;outlineConnect=0;fontColor=#232F3E;gradientColor=none;fillColor=#8C4FFF;strokeColor=none;dashed=0;verticalLabelPosition=bottom;verticalAlign=top;align=center;html=1;fontSize=12;fontStyle=0;aspect=fixed;pointerEvents=1;shape=mxgraph.aws4.internet_gateway;" vertex="1" parent="_pCWuQ_MNoQDp3mQOAM--109">
          <mxGeometry x="376" width="48" height="48" as="geometry" />
        </mxCell>
        <mxCell id="_pCWuQ_MNoQDp3mQOAM--76" value="Private subnet" style="points=[[0,0],[0.25,0],[0.5,0],[0.75,0],[1,0],[1,0.25],[1,0.5],[1,0.75],[1,1],[0.75,1],[0.5,1],[0.25,1],[0,1],[0,0.75],[0,0.5],[0,0.25]];outlineConnect=0;gradientColor=none;html=1;whiteSpace=wrap;fontSize=12;fontStyle=0;container=1;pointerEvents=0;collapsible=0;recursiveResize=0;shape=mxgraph.aws4.group;grIcon=mxgraph.aws4.group_security_group;grStroke=0;strokeColor=#00A4A6;fillColor=#E6F6F7;verticalAlign=top;align=left;spacingLeft=30;fontColor=#147EBA;dashed=0;" vertex="1" parent="_pCWuQ_MNoQDp3mQOAM--109">
          <mxGeometry x="60" y="346" width="165" height="130" as="geometry" />
        </mxCell>
        <mxCell id="_pCWuQ_MNoQDp3mQOAM--77" value="Public subnet" style="points=[[0,0],[0.25,0],[0.5,0],[0.75,0],[1,0],[1,0.25],[1,0.5],[1,0.75],[1,1],[0.75,1],[0.5,1],[0.25,1],[0,1],[0,0.75],[0,0.5],[0,0.25]];outlineConnect=0;gradientColor=none;html=1;whiteSpace=wrap;fontSize=12;fontStyle=0;container=1;pointerEvents=0;collapsible=0;recursiveResize=0;shape=mxgraph.aws4.group;grIcon=mxgraph.aws4.group_security_group;grStroke=0;strokeColor=#7AA116;fillColor=#F2F6E8;verticalAlign=top;align=left;spacingLeft=30;fontColor=#248814;dashed=0;" vertex="1" parent="_pCWuQ_MNoQDp3mQOAM--109">
          <mxGeometry x="60" y="166" width="165" height="130" as="geometry" />
        </mxCell>
        <mxCell id="_pCWuQ_MNoQDp3mQOAM--78" value="" style="sketch=0;points=[[0,0,0],[0.25,0,0],[0.5,0,0],[0.75,0,0],[1,0,0],[0,1,0],[0.25,1,0],[0.5,1,0],[0.75,1,0],[1,1,0],[0,0.25,0],[0,0.5,0],[0,0.75,0],[1,0.25,0],[1,0.5,0],[1,0.75,0]];outlineConnect=0;fontColor=#232F3E;fillColor=#ED7100;strokeColor=#ffffff;dashed=0;verticalLabelPosition=bottom;verticalAlign=top;align=center;html=1;fontSize=12;fontStyle=0;aspect=fixed;shape=mxgraph.aws4.resourceIcon;resIcon=mxgraph.aws4.ec2;" vertex="1" parent="_pCWuQ_MNoQDp3mQOAM--77">
          <mxGeometry x="84" y="85" width="40" height="40" as="geometry" />
        </mxCell>
        <mxCell id="_pCWuQ_MNoQDp3mQOAM--79" value="" style="shape=ext;double=1;rounded=0;whiteSpace=wrap;html=1;" vertex="1" parent="_pCWuQ_MNoQDp3mQOAM--77">
          <mxGeometry x="10" y="90" width="60" height="30" as="geometry" />
        </mxCell>
        <mxCell id="_pCWuQ_MNoQDp3mQOAM--80" value="" style="html=1;shadow=0;dashed=0;align=center;verticalAlign=middle;shape=mxgraph.arrows2.twoWayArrow;dy=0.65;dx=22;" vertex="1" parent="_pCWuQ_MNoQDp3mQOAM--77">
          <mxGeometry x="15" y="100" width="50" height="15" as="geometry" />
        </mxCell>
        <mxCell id="_pCWuQ_MNoQDp3mQOAM--81" value="" style="pointerEvents=1;shadow=0;dashed=0;html=1;strokeColor=none;fillColor=#4495D1;labelPosition=center;verticalLabelPosition=bottom;verticalAlign=top;align=center;outlineConnect=0;shape=mxgraph.veeam.cpu_socket;" vertex="1" parent="_pCWuQ_MNoQDp3mQOAM--77">
          <mxGeometry x="34" y="30" width="44.8" height="44.8" as="geometry" />
        </mxCell>
        <mxCell id="_pCWuQ_MNoQDp3mQOAM--82" value="" style="endArrow=classic;startArrow=classic;html=1;rounded=0;exitX=0;exitY=0;exitDx=0;exitDy=0;" edge="1" parent="_pCWuQ_MNoQDp3mQOAM--77" source="_pCWuQ_MNoQDp3mQOAM--79">
          <mxGeometry width="50" height="50" relative="1" as="geometry">
            <mxPoint x="-16" y="100" as="sourcePoint" />
            <mxPoint x="34" y="50" as="targetPoint" />
            <Array as="points">
              <mxPoint x="10" y="50" />
            </Array>
          </mxGeometry>
        </mxCell>
        <mxCell id="_pCWuQ_MNoQDp3mQOAM--83" value="" style="endArrow=classic;startArrow=classic;html=1;rounded=0;" edge="1" parent="_pCWuQ_MNoQDp3mQOAM--77" target="_pCWuQ_MNoQDp3mQOAM--81">
          <mxGeometry width="50" height="50" relative="1" as="geometry">
            <mxPoint x="110" y="85" as="sourcePoint" />
            <mxPoint x="34" y="60" as="targetPoint" />
            <Array as="points">
              <mxPoint x="110" y="52" />
            </Array>
          </mxGeometry>
        </mxCell>
        <mxCell id="_pCWuQ_MNoQDp3mQOAM--84" value="" style="outlineConnect=0;dashed=0;verticalLabelPosition=bottom;verticalAlign=top;align=center;html=1;shape=mxgraph.aws3.vpc_nat_gateway;fillColor=#F58536;gradientColor=none;" vertex="1" parent="_pCWuQ_MNoQDp3mQOAM--109">
          <mxGeometry x="209" y="216" width="41" height="40" as="geometry" />
        </mxCell>
        <mxCell id="_pCWuQ_MNoQDp3mQOAM--85" value="" style="points=[];aspect=fixed;html=1;align=center;shadow=0;dashed=0;fillColor=#FF6A00;strokeColor=none;shape=mxgraph.alibaba_cloud.redis_kvstore;" vertex="1" parent="_pCWuQ_MNoQDp3mQOAM--109">
          <mxGeometry x="93.75" y="381" width="52.5" height="41.4" as="geometry" />
        </mxCell>
        <mxCell id="_pCWuQ_MNoQDp3mQOAM--86" value="" style="sketch=0;outlineConnect=0;fontColor=#232F3E;gradientColor=none;fillColor=#8C4FFF;strokeColor=none;dashed=0;verticalLabelPosition=bottom;verticalAlign=top;align=center;html=1;fontSize=12;fontStyle=0;aspect=fixed;pointerEvents=1;shape=mxgraph.aws4.route_table;" vertex="1" parent="_pCWuQ_MNoQDp3mQOAM--109">
          <mxGeometry x="115.36999999999989" y="56" width="49.26" height="48" as="geometry" />
        </mxCell>
        <mxCell id="_pCWuQ_MNoQDp3mQOAM--87" value="" style="outlineConnect=0;dashed=0;verticalLabelPosition=bottom;verticalAlign=top;align=center;html=1;shape=mxgraph.aws3.route_table;fillColor=#F58536;gradientColor=none;" vertex="1" parent="_pCWuQ_MNoQDp3mQOAM--109">
          <mxGeometry x="315" y="381" width="50" height="30" as="geometry" />
        </mxCell>
        <mxCell id="_pCWuQ_MNoQDp3mQOAM--88" value="" style="endArrow=classic;html=1;rounded=0;edgeStyle=elbowEdgeStyle;" edge="1" parent="_pCWuQ_MNoQDp3mQOAM--109">
          <mxGeometry width="50" height="50" relative="1" as="geometry">
            <mxPoint x="230" y="395.5" as="sourcePoint" />
            <mxPoint x="320" y="396" as="targetPoint" />
            <Array as="points">
              <mxPoint x="250" y="395.5" />
            </Array>
          </mxGeometry>
        </mxCell>
        <mxCell id="_pCWuQ_MNoQDp3mQOAM--89" value="" style="endArrow=classic;html=1;rounded=0;" edge="1" parent="_pCWuQ_MNoQDp3mQOAM--109" source="_pCWuQ_MNoQDp3mQOAM--87" target="_pCWuQ_MNoQDp3mQOAM--84">
          <mxGeometry width="50" height="50" relative="1" as="geometry">
            <mxPoint x="290" y="286" as="sourcePoint" />
            <mxPoint x="340" y="236" as="targetPoint" />
            <Array as="points">
              <mxPoint x="340" y="236" />
              <mxPoint x="280" y="236" />
            </Array>
          </mxGeometry>
        </mxCell>
        <mxCell id="_pCWuQ_MNoQDp3mQOAM--90" value="Availability zone" style="sketch=0;outlineConnect=0;gradientColor=none;html=1;whiteSpace=wrap;fontSize=12;fontStyle=0;shape=mxgraph.aws4.group;grIcon=mxgraph.aws4.group_availability_zone;strokeColor=#545B64;fillColor=none;verticalAlign=top;align=left;spacingLeft=30;fontColor=#545B64;dashed=1;" vertex="1" parent="_pCWuQ_MNoQDp3mQOAM--109">
          <mxGeometry x="530" y="114" width="220" height="400" as="geometry" />
        </mxCell>
        <mxCell id="_pCWuQ_MNoQDp3mQOAM--91" value="" style="sketch=0;outlineConnect=0;fontColor=#232F3E;gradientColor=none;fillColor=#8C4FFF;strokeColor=none;dashed=0;verticalLabelPosition=bottom;verticalAlign=top;align=center;html=1;fontSize=12;fontStyle=0;aspect=fixed;pointerEvents=1;shape=mxgraph.aws4.route_table;" vertex="1" parent="_pCWuQ_MNoQDp3mQOAM--109">
          <mxGeometry x="590" y="48" width="49.26" height="48" as="geometry" />
        </mxCell>
        <mxCell id="_pCWuQ_MNoQDp3mQOAM--92" value="" style="outlineConnect=0;dashed=0;verticalLabelPosition=bottom;verticalAlign=top;align=center;html=1;shape=mxgraph.aws3.route_table;fillColor=#F58536;gradientColor=none;" vertex="1" parent="_pCWuQ_MNoQDp3mQOAM--109">
          <mxGeometry x="420" y="381" width="50" height="30" as="geometry" />
        </mxCell>
        <mxCell id="_pCWuQ_MNoQDp3mQOAM--93" value="Private subnet" style="points=[[0,0],[0.25,0],[0.5,0],[0.75,0],[1,0],[1,0.25],[1,0.5],[1,0.75],[1,1],[0.75,1],[0.5,1],[0.25,1],[0,1],[0,0.75],[0,0.5],[0,0.25]];outlineConnect=0;gradientColor=none;html=1;whiteSpace=wrap;fontSize=12;fontStyle=0;container=1;pointerEvents=0;collapsible=0;recursiveResize=0;shape=mxgraph.aws4.group;grIcon=mxgraph.aws4.group_security_group;grStroke=0;strokeColor=#00A4A6;fillColor=#E6F6F7;verticalAlign=top;align=left;spacingLeft=30;fontColor=#147EBA;dashed=0;" vertex="1" parent="_pCWuQ_MNoQDp3mQOAM--109">
          <mxGeometry x="557.5" y="356" width="165" height="130" as="geometry" />
        </mxCell>
        <mxCell id="_pCWuQ_MNoQDp3mQOAM--94" value="Public subnet" style="points=[[0,0],[0.25,0],[0.5,0],[0.75,0],[1,0],[1,0.25],[1,0.5],[1,0.75],[1,1],[0.75,1],[0.5,1],[0.25,1],[0,1],[0,0.75],[0,0.5],[0,0.25]];outlineConnect=0;gradientColor=none;html=1;whiteSpace=wrap;fontSize=12;fontStyle=0;container=1;pointerEvents=0;collapsible=0;recursiveResize=0;shape=mxgraph.aws4.group;grIcon=mxgraph.aws4.group_security_group;grStroke=0;strokeColor=#7AA116;fillColor=#F2F6E8;verticalAlign=top;align=left;spacingLeft=30;fontColor=#248814;dashed=0;" vertex="1" parent="_pCWuQ_MNoQDp3mQOAM--109">
          <mxGeometry x="567.5" y="166" width="155" height="160" as="geometry" />
        </mxCell>
        <mxCell id="_pCWuQ_MNoQDp3mQOAM--95" value="" style="sketch=0;points=[[0,0,0],[0.25,0,0],[0.5,0,0],[0.75,0,0],[1,0,0],[0,1,0],[0.25,1,0],[0.5,1,0],[0.75,1,0],[1,1,0],[0,0.25,0],[0,0.5,0],[0,0.75,0],[1,0.25,0],[1,0.5,0],[1,0.75,0]];outlineConnect=0;fontColor=#232F3E;fillColor=#ED7100;strokeColor=#ffffff;dashed=0;verticalLabelPosition=bottom;verticalAlign=top;align=center;html=1;fontSize=12;fontStyle=0;aspect=fixed;shape=mxgraph.aws4.resourceIcon;resIcon=mxgraph.aws4.ec2;" vertex="1" parent="_pCWuQ_MNoQDp3mQOAM--94">
          <mxGeometry x="84" y="85" width="40" height="40" as="geometry" />
        </mxCell>
        <mxCell id="_pCWuQ_MNoQDp3mQOAM--96" value="" style="shape=ext;double=1;rounded=0;whiteSpace=wrap;html=1;" vertex="1" parent="_pCWuQ_MNoQDp3mQOAM--94">
          <mxGeometry x="10" y="90" width="60" height="30" as="geometry" />
        </mxCell>
        <mxCell id="_pCWuQ_MNoQDp3mQOAM--97" value="" style="html=1;shadow=0;dashed=0;align=center;verticalAlign=middle;shape=mxgraph.arrows2.twoWayArrow;dy=0.65;dx=22;" vertex="1" parent="_pCWuQ_MNoQDp3mQOAM--94">
          <mxGeometry x="15" y="100" width="50" height="15" as="geometry" />
        </mxCell>
        <mxCell id="_pCWuQ_MNoQDp3mQOAM--98" value="" style="pointerEvents=1;shadow=0;dashed=0;html=1;strokeColor=none;fillColor=#4495D1;labelPosition=center;verticalLabelPosition=bottom;verticalAlign=top;align=center;outlineConnect=0;shape=mxgraph.veeam.cpu_socket;" vertex="1" parent="_pCWuQ_MNoQDp3mQOAM--94">
          <mxGeometry x="34" y="30" width="44.8" height="44.8" as="geometry" />
        </mxCell>
        <mxCell id="_pCWuQ_MNoQDp3mQOAM--99" value="" style="endArrow=classic;startArrow=classic;html=1;rounded=0;exitX=0;exitY=0;exitDx=0;exitDy=0;" edge="1" parent="_pCWuQ_MNoQDp3mQOAM--94" source="_pCWuQ_MNoQDp3mQOAM--96">
          <mxGeometry width="50" height="50" relative="1" as="geometry">
            <mxPoint x="-16" y="100" as="sourcePoint" />
            <mxPoint x="34" y="50" as="targetPoint" />
            <Array as="points">
              <mxPoint x="10" y="50" />
            </Array>
          </mxGeometry>
        </mxCell>
        <mxCell id="_pCWuQ_MNoQDp3mQOAM--100" value="" style="endArrow=classic;startArrow=classic;html=1;rounded=0;" edge="1" parent="_pCWuQ_MNoQDp3mQOAM--94" target="_pCWuQ_MNoQDp3mQOAM--98">
          <mxGeometry width="50" height="50" relative="1" as="geometry">
            <mxPoint x="110" y="85" as="sourcePoint" />
            <mxPoint x="34" y="60" as="targetPoint" />
            <Array as="points">
              <mxPoint x="110" y="52" />
            </Array>
          </mxGeometry>
        </mxCell>
        <mxCell id="_pCWuQ_MNoQDp3mQOAM--101" value="" style="sketch=0;outlineConnect=0;fontColor=#232F3E;gradientColor=none;fillColor=#C925D1;strokeColor=none;dashed=0;verticalLabelPosition=bottom;verticalAlign=top;align=center;html=1;fontSize=12;fontStyle=0;aspect=fixed;pointerEvents=1;shape=mxgraph.aws4.rds_instance;" vertex="1" parent="_pCWuQ_MNoQDp3mQOAM--109">
          <mxGeometry x="600" y="386" width="78" height="78" as="geometry" />
        </mxCell>
        <mxCell id="_pCWuQ_MNoQDp3mQOAM--102" value="" style="outlineConnect=0;dashed=0;verticalLabelPosition=bottom;verticalAlign=top;align=center;html=1;shape=mxgraph.aws3.vpc_nat_gateway;fillColor=#F58536;gradientColor=none;rotation=-180;" vertex="1" parent="_pCWuQ_MNoQDp3mQOAM--109">
          <mxGeometry x="528.5" y="236" width="39" height="42" as="geometry" />
        </mxCell>
        <mxCell id="_pCWuQ_MNoQDp3mQOAM--103" value="" style="endArrow=classic;html=1;rounded=0;entryX=1;entryY=0.5;entryDx=0;entryDy=0;entryPerimeter=0;" edge="1" parent="_pCWuQ_MNoQDp3mQOAM--109" target="_pCWuQ_MNoQDp3mQOAM--92">
          <mxGeometry width="50" height="50" relative="1" as="geometry">
            <mxPoint x="530" y="394.25641025641016" as="sourcePoint" />
            <mxPoint x="470" y="419.48717948717945" as="targetPoint" />
          </mxGeometry>
        </mxCell>
        <mxCell id="_pCWuQ_MNoQDp3mQOAM--104" value="" style="endArrow=classic;html=1;rounded=0;" edge="1" parent="_pCWuQ_MNoQDp3mQOAM--109" source="_pCWuQ_MNoQDp3mQOAM--92" target="_pCWuQ_MNoQDp3mQOAM--102">
          <mxGeometry width="50" height="50" relative="1" as="geometry">
            <mxPoint x="330" y="286" as="sourcePoint" />
            <mxPoint x="380" y="236" as="targetPoint" />
            <Array as="points">
              <mxPoint x="450" y="256" />
            </Array>
          </mxGeometry>
        </mxCell>
        <mxCell id="_pCWuQ_MNoQDp3mQOAM--105" value="" style="endArrow=classic;html=1;rounded=0;" edge="1" parent="_pCWuQ_MNoQDp3mQOAM--109" source="_pCWuQ_MNoQDp3mQOAM--77" target="_pCWuQ_MNoQDp3mQOAM--86">
          <mxGeometry width="50" height="50" relative="1" as="geometry">
            <mxPoint x="117.0740506329114" y="151" as="sourcePoint" />
            <mxPoint x="113.60417721519002" y="123" as="targetPoint" />
          </mxGeometry>
        </mxCell>
        <mxCell id="_pCWuQ_MNoQDp3mQOAM--106" value="" style="endArrow=classic;html=1;rounded=0;" edge="1" parent="_pCWuQ_MNoQDp3mQOAM--109">
          <mxGeometry width="50" height="50" relative="1" as="geometry">
            <mxPoint x="620" y="155" as="sourcePoint" />
            <mxPoint x="619" y="93" as="targetPoint" />
          </mxGeometry>
        </mxCell>
        <mxCell id="_pCWuQ_MNoQDp3mQOAM--107" value="" style="endArrow=classic;startArrow=classic;html=1;rounded=0;" edge="1" parent="_pCWuQ_MNoQDp3mQOAM--109" target="_pCWuQ_MNoQDp3mQOAM--91">
          <mxGeometry width="50" height="50" relative="1" as="geometry">
            <mxPoint x="170" y="76" as="sourcePoint" />
            <mxPoint x="310" y="256" as="targetPoint" />
          </mxGeometry>
        </mxCell>
        <mxCell id="_pCWuQ_MNoQDp3mQOAM--108" value="" style="endArrow=classic;html=1;rounded=0;" edge="1" parent="_pCWuQ_MNoQDp3mQOAM--109" target="_pCWuQ_MNoQDp3mQOAM--75">
          <mxGeometry width="50" height="50" relative="1" as="geometry">
            <mxPoint x="400" y="76" as="sourcePoint" />
            <mxPoint x="310" y="256" as="targetPoint" />
          </mxGeometry>
        </mxCell>
        <mxCell id="_pCWuQ_MNoQDp3mQOAM--111" value="" style="outlineConnect=0;dashed=0;verticalLabelPosition=bottom;verticalAlign=top;align=center;html=1;shape=mxgraph.aws3.vpc_peering;fillColor=#F58534;gradientColor=none;" vertex="1" parent="1">
          <mxGeometry x="1013" y="714" width="69" height="72" as="geometry" />
        </mxCell>
        <mxCell id="_pCWuQ_MNoQDp3mQOAM--117" value="" style="endArrow=classic;html=1;rounded=0;" edge="1" parent="1" source="_pCWuQ_MNoQDp3mQOAM--2">
          <mxGeometry width="50" height="50" relative="1" as="geometry">
            <mxPoint x="990" y="850" as="sourcePoint" />
            <mxPoint x="1010" y="760" as="targetPoint" />
            <Array as="points">
              <mxPoint x="550" y="760" />
            </Array>
          </mxGeometry>
        </mxCell>
        <mxCell id="_pCWuQ_MNoQDp3mQOAM--118" value="" style="endArrow=classic;html=1;rounded=0;" edge="1" parent="1" source="_pCWuQ_MNoQDp3mQOAM--73">
          <mxGeometry width="50" height="50" relative="1" as="geometry">
            <mxPoint x="990" y="850" as="sourcePoint" />
            <mxPoint x="1080" y="760" as="targetPoint" />
            <Array as="points">
              <mxPoint x="1550" y="760" />
            </Array>
          </mxGeometry>
        </mxCell>
        <mxCell id="_pCWuQ_MNoQDp3mQOAM--119" value="" style="sketch=0;points=[[0,0,0],[0.25,0,0],[0.5,0,0],[0.75,0,0],[1,0,0],[0,1,0],[0.25,1,0],[0.5,1,0],[0.75,1,0],[1,1,0],[0,0.25,0],[0,0.5,0],[0,0.75,0],[1,0.25,0],[1,0.5,0],[1,0.75,0]];outlineConnect=0;fontColor=#232F3E;fillColor=#8C4FFF;strokeColor=#ffffff;dashed=0;verticalLabelPosition=bottom;verticalAlign=top;align=center;html=1;fontSize=12;fontStyle=0;aspect=fixed;shape=mxgraph.aws4.resourceIcon;resIcon=mxgraph.aws4.route_53;" vertex="1" parent="1">
          <mxGeometry x="1022" y="-150" width="78" height="78" as="geometry" />
        </mxCell>
        <mxCell id="_pCWuQ_MNoQDp3mQOAM--122" value="" style="verticalLabelPosition=bottom;shadow=0;dashed=0;align=center;html=1;verticalAlign=top;strokeWidth=1;shape=mxgraph.mockup.containers.userMale;strokeColor=#666666;strokeColor2=#008cff;" vertex="1" parent="1">
          <mxGeometry x="374" y="-161" width="100" height="100" as="geometry" />
        </mxCell>
        <object label="&lt;font style=&quot;font-size: 22px;&quot;&gt;CDN&lt;/font&gt;" id="_pCWuQ_MNoQDp3mQOAM--125">
          <mxCell style="ellipse;shape=cloud;whiteSpace=wrap;html=1;align=center;" vertex="1" parent="1">
            <mxGeometry x="620" y="-148" width="180" height="80" as="geometry" />
          </mxCell>
        </object>
        <mxCell id="_pCWuQ_MNoQDp3mQOAM--126" value="" style="endArrow=classic;html=1;rounded=0;exitX=1;exitY=0.5;exitDx=0;exitDy=0;exitPerimeter=0;" edge="1" parent="1" source="_pCWuQ_MNoQDp3mQOAM--119" target="_pCWuQ_MNoQDp3mQOAM--75">
          <mxGeometry width="50" height="50" relative="1" as="geometry">
            <mxPoint x="970" y="710" as="sourcePoint" />
            <mxPoint x="1020" y="660" as="targetPoint" />
            <Array as="points">
              <mxPoint x="1550" y="-111" />
            </Array>
          </mxGeometry>
        </mxCell>
        <mxCell id="_pCWuQ_MNoQDp3mQOAM--127" value="" style="endArrow=classic;html=1;rounded=0;exitX=0.5;exitY=1;exitDx=0;exitDy=0;exitPerimeter=0;" edge="1" parent="1" source="_pCWuQ_MNoQDp3mQOAM--119" target="_pCWuQ_MNoQDp3mQOAM--5">
          <mxGeometry width="50" height="50" relative="1" as="geometry">
            <mxPoint x="970" y="710" as="sourcePoint" />
            <mxPoint x="1020" y="660" as="targetPoint" />
            <Array as="points">
              <mxPoint x="1061" />
              <mxPoint x="560" y="-10" />
            </Array>
          </mxGeometry>
        </mxCell>
        <mxCell id="_pCWuQ_MNoQDp3mQOAM--129" value="" style="endArrow=classic;html=1;rounded=0;entryX=0.16;entryY=0.55;entryDx=0;entryDy=0;entryPerimeter=0;" edge="1" parent="1">
          <mxGeometry width="50" height="50" relative="1" as="geometry">
            <mxPoint x="475" y="-111" as="sourcePoint" />
            <mxPoint x="623.7999999999997" y="-111" as="targetPoint" />
          </mxGeometry>
        </mxCell>
        <mxCell id="_pCWuQ_MNoQDp3mQOAM--130" value="" style="endArrow=classic;html=1;rounded=0;entryX=0;entryY=0.5;entryDx=0;entryDy=0;entryPerimeter=0;exitX=0.875;exitY=0.5;exitDx=0;exitDy=0;exitPerimeter=0;" edge="1" parent="1" source="_pCWuQ_MNoQDp3mQOAM--125" target="_pCWuQ_MNoQDp3mQOAM--119">
          <mxGeometry width="50" height="50" relative="1" as="geometry">
            <mxPoint x="834" y="-124" as="sourcePoint" />
            <mxPoint x="967" y="-130" as="targetPoint" />
          </mxGeometry>
        </mxCell>
        <mxCell id="_pCWuQ_MNoQDp3mQOAM--131" value="" style="sketch=0;outlineConnect=0;fontColor=#232F3E;gradientColor=none;fillColor=#E7157B;strokeColor=none;dashed=0;verticalLabelPosition=bottom;verticalAlign=top;align=center;html=1;fontSize=12;fontStyle=0;aspect=fixed;pointerEvents=1;shape=mxgraph.aws4.endpoint;" vertex="1" parent="1">
          <mxGeometry x="2110" y="326" width="78" height="78" as="geometry" />
        </mxCell>
        <mxCell id="_pCWuQ_MNoQDp3mQOAM--133" value="&lt;font style=&quot;font-size: 32px;&quot;&gt;API&lt;/font&gt;" style="rounded=1;whiteSpace=wrap;html=1;strokeWidth=2;fillWeight=4;hachureGap=8;hachureAngle=45;fillColor=#2875E2;sketch=0;aspect=fixed;dashed=0;whitespace=wrap;verticalLabelPosition=bottom;verticalAlign=top;strokeColor=#ffffff;points=[[0.005,0.63,0],[0.1,0.2,0],[0.9,0.2,0],[0.5,0,0],[0.995,0.63,0],[0.72,0.99,0],[0.5,1,0],[0.28,0.99,0]];shape=mxgraph.kubernetes.icon2;kubernetesLabel=1;prIcon=api;" vertex="1" parent="1">
          <mxGeometry x="2076" y="197" width="134" height="67" as="geometry" />
        </mxCell>
        <mxCell id="_pCWuQ_MNoQDp3mQOAM--134" value="&lt;font style=&quot;font-size: 22px;&quot;&gt;API Endpoint&lt;/font&gt;" style="text;html=1;align=center;verticalAlign=middle;whiteSpace=wrap;rounded=0;" vertex="1" parent="1">
          <mxGeometry x="2090" y="420" width="140" height="30" as="geometry" />
        </mxCell>
        <mxCell id="_pCWuQ_MNoQDp3mQOAM--135" value="" style="endArrow=classic;html=1;rounded=0;entryX=0.27;entryY=0.617;entryDx=0;entryDy=0;entryPerimeter=0;" edge="1" parent="1" source="_pCWuQ_MNoQDp3mQOAM--131" target="_pCWuQ_MNoQDp3mQOAM--133">
          <mxGeometry width="50" height="50" relative="1" as="geometry">
            <mxPoint x="980" y="810" as="sourcePoint" />
            <mxPoint x="1030" y="760" as="targetPoint" />
            <Array as="points">
              <mxPoint x="2040" y="370" />
              <mxPoint x="2040" y="300" />
              <mxPoint x="2040" y="238" />
            </Array>
          </mxGeometry>
        </mxCell>
        <mxCell id="_pCWuQ_MNoQDp3mQOAM--139" value="" style="endArrow=none;html=1;rounded=0;" edge="1" parent="1">
          <mxGeometry width="50" height="50" relative="1" as="geometry">
            <mxPoint x="1951" y="304.1830265848671" as="sourcePoint" />
            <mxPoint x="2040" y="303" as="targetPoint" />
          </mxGeometry>
        </mxCell>
        <mxCell id="_pCWuQ_MNoQDp3mQOAM--141" value="" style="verticalLabelPosition=bottom;sketch=0;aspect=fixed;html=1;verticalAlign=top;strokeColor=none;align=center;outlineConnect=0;shape=mxgraph.citrix.laptop_1;" vertex="1" parent="1">
          <mxGeometry x="-140" y="274" width="153.64" height="130" as="geometry" />
        </mxCell>
        <mxCell id="_pCWuQ_MNoQDp3mQOAM--142" value="&lt;font style=&quot;font-size: 32px;&quot;&gt;Developer VPN&lt;/font&gt;" style="text;html=1;align=center;verticalAlign=middle;whiteSpace=wrap;rounded=0;" vertex="1" parent="1">
          <mxGeometry x="-170" y="415.5" width="260" height="99" as="geometry" />
        </mxCell>
        <mxCell id="_pCWuQ_MNoQDp3mQOAM--145" value="" style="endArrow=none;html=1;rounded=0;" edge="1" parent="1">
          <mxGeometry width="50" height="50" relative="1" as="geometry">
            <mxPoint x="430" y="780" as="sourcePoint" />
            <mxPoint x="480" y="730" as="targetPoint" />
          </mxGeometry>
        </mxCell>
        <mxCell id="_pCWuQ_MNoQDp3mQOAM--146" value="" style="endArrow=none;html=1;rounded=0;exitX=0.976;exitY=0.508;exitDx=0;exitDy=0;exitPerimeter=0;" edge="1" parent="1" source="_pCWuQ_MNoQDp3mQOAM--141" target="_pCWuQ_MNoQDp3mQOAM--2">
          <mxGeometry width="50" height="50" relative="1" as="geometry">
            <mxPoint x="40" y="350" as="sourcePoint" />
            <mxPoint x="480" y="730" as="targetPoint" />
          </mxGeometry>
        </mxCell>
        <mxCell id="_pCWuQ_MNoQDp3mQOAM--147" value="&lt;font style=&quot;font-size: 32px;&quot;&gt;Reason 01&lt;/font&gt;" style="text;html=1;align=center;verticalAlign=middle;whiteSpace=wrap;rounded=0;" vertex="1" parent="1">
          <mxGeometry x="170" y="600" width="260" height="99" as="geometry" />
        </mxCell>
        <mxCell id="_pCWuQ_MNoQDp3mQOAM--148" value="&lt;font style=&quot;font-size: 32px;&quot;&gt;Reason 02&lt;/font&gt;" style="text;html=1;align=center;verticalAlign=middle;whiteSpace=wrap;rounded=0;" vertex="1" parent="1">
          <mxGeometry x="1610" y="610" width="260" height="99" as="geometry" />
        </mxCell>
      </root>
    </mxGraphModel>
  </diagram>
</mxfile>
